<svg xmlns="http://www.w3.org/2000/svg" width="48" height="48" viewBox="0 0 192 192">

  <style>
    @media (prefers-color-scheme: dark) {
      svg { filter: invert(0%) hue-rotate(0deg) saturate(100%) contrast(100%) brightness(1); }
    }
  </style><path fill="#3B3D48" d="M0 0h192v192H0z"/><path fill="#3A3B44" d="M177 27h3v9h3v-3h3v-3h3c0 3.5-.5 3.8-3 6h6v156H0V85l3-1c.3-1 .7-2 1-3h5c.3-1 .7-2 1-3h2c.3-1 .7-2 1-3h2c.7 3 1.3 5.9 2 9h-2c.2.7.3 1.3.5 2 .7 3.7.6 7.5.6 11.3 0 .8 0 1.5-.1 2.3v5.4h2c.1.8.2 1.6.3 2.5 3 21.6 13.4 43.3 32.3 55.5 6.5 4.1 13.1 7.8 20.4 10 1.3.4 1.3.4 2.5.8 12.6 3.7 28.3 5.5 40.8.8 1.7-.6 1.7-.6 3.7-1.1 6.9-1.7 12.6-4.9 18.6-8.5.7-.3 1.4-.7 2.1-1.1.6-.4 1.1-.8 1.8-1.1 1.5-.8 1.5-.8 3.5-.8v-2c1.5-1.5 1.5-1.5 3.4-3.1.6-.6 1.2-1.1 1.9-1.7 1.7-1.2 1.7-1.2 3.7-1.2.4-.8.4-.8.8-1.7 1.8-3.4 4.2-6.2 6.6-9.2 1.4-1.8 2.1-3 2.6-5.1h2c.1-.7.2-1.3.2-2 .5-2.4 1.4-4.1 2.6-6.2 5.1-9.8 7.1-21.9 6.2-32.8h-3l-.3 2.1c-.3 3-.7 6.1-1.1 9.2-.2 1.6-.2 1.6-.4 3.3-.2 1-.3 2-.4 3.1-.2.9-.3 1.9-.4 2.8-.3 2-.7 3.7-1.4 5.5h-2l-.3 2.1c-.8 3.3-2.1 6-3.6 9-.3.5-.6 1-.8 1.5-.6 1-1.1 2-1.6 3-.8 1.5-.8 1.5-1.5 3.5-1.8 2.8-4.4 4.2-7.2 5.9 0-.4-.1-.9-.1-1.3-.2-2-.4-3.9-.6-5.9-.1-1-.1-1-.1-2-.6-4.6-1.6-6.9-5.2-9.8-1-1-1-1-1-3-2.8-1.2-5.5-1.2-8.5-1.3-1.1-.1-2.2-.1-3.3-.1-1.1-.1-2.2-.1-3.4-.2-1.1 0-2.2 0-3.4-.1l-8.4-.3c-4-7.9-4-7.9-4-11.8 1.1-2.5 2.4-4.2 4.2-6.2.7-.7 1.3-1.4 2-2.1 1.5-1.6 3-3.1 4.6-4.7 2-1.8 3.2-3.7 4.2-6.2h2v3h3v-6c-.7-.3-1.3-.7-2-1 .2-.5.4-.9.6-1.4 2.3-5.5 3-10.7 3.4-16.6l4-2v3h18v-3h-13v-1c1.3 0 1.3 0 2.7-.1l12.2-.3c1.4 0 2.8 0 4.3-.1 1.3 0 2.7 0 4-.1 1.3 0 2.5 0 3.8-.1 3.1 0 3.1 0 5-2.3.4-2.4.4-2.4.4-5.1 0-1 0-2.1.1-3.1 0-1.1 0-2.1.1-3.2 0-2.1.1-4.2.2-6.3v-2.9c.2-2 .4-3.5 1.2-5.4h-3v-3h3z"/><path fill="#0969AB" d="M98 20c-.3 1.3-.7 2.6-1 4-5.2 1.7-10.4 2.6-15.8 3.4-19.9 3.1-36 13.4-47.3 30.3-7.6 12.9-11.1 25.6-11.1 40.4-.1 1.1-.1 2.2-.1 3.3 0 6.5.7 12.1 2.7 18.3.6 2.2.7 4 .6 6.3.5.1.9.1 1.4.2 2.5 1.2 2.7 3.1 3.7 5.7 1.2 3.5 1.2 3.5 3 6.7.9 1.4.9 1.4.9 4.4 1.3.7 2.6 1.3 4 2v2h3c-.1-1-.1-1.9-.2-2.9.1-7.4 2.4-14.1 8.1-18.8 6.8-3.6 16.7-2.4 24.1-2.3 3.2-4.1 5.4-7.7 5-13l-1.2-.9c-.8-.6-.8-.6-1.6-1.3-.7-.6-.7-.6-1.5-1.2-4.5-4.2-6.7-8.5-8.8-14.2-1-2.8-1.8-4.3-4-6.4-2.6-2.7-2.4-4.6-2.1-8.2v-1.7c.1-1.4.1-2.7.2-4.1 1.6-1 3.3-2 5-3 .3-5.3.7-10.6 1-16h2c.1-.7.2-1.5.2-2.2 1-3.5 2-4.7 4.8-6.8 5.9-2.1 11.2-2.3 17.5-2.3h6c2.1 0 4.2 0 6.3.1 2.1-.1 4.2-.1 6.4-.1h11.6c4.2.3 4.2.3 6.2 2.3.3 2.5.3 2.5.3 5.5v3.4c.1 2.3.1 4.6.1 7 0 1.1 0 2.2.1 3.3v3.1c.6 3.4 2 4.4 4.5 6.7.9 3.7 1.3 8.2-1 11.4-.9.8-1.8 1.6-2.7 2.3-1.7 1.7-2.1 3.2-2.7 5.5-2.3 7.6-6.9 13.6-12.6 18.8.5 3.8 1.2 6.6 3 10v3c.7 0 1.4-.1 2.1-.1 3.2-.1 6.4-.1 9.6-.2 1.1-.1 2.2-.1 3.3-.1 9.2-.2 9.2-.2 12 2.7.7.9 1.4 1.8 2 2.7 1.1.9 1.1.9 2.2 1.9 2.5 2.9 2.7 5.6 3 9.3.1.7.2 1.3.3 2 .2 1.6.3 3.2.5 4.8.5-.5.9-1 1.4-1.5 1.6-1.5 1.6-1.5 3.6-1.5.1-.5.2-1.1.3-1.6 1.1-3.8 3.2-7.1 5.2-10.6 1.6-2.9 2.9-5.5 3.5-8.8h2c.1-.6.1-1.2.2-1.8.2-2.8.4-5.6.7-8.3.1-1 .1-1.9.2-2.9.5-5 1-9.4 2.9-14 1.3.3 2.6.7 4 1 1.1 14.6-3.3 28.2-10 41h-2l-.3 1.8c-1.7 5.4-6.4 10.1-10.5 14-1.7 1.7-3.4 3.5-5.1 5.3-1.1.9-1.1.9-3.1.9v2c-9.9 6.1-19.8 11.6-31.4 13.6-1.6.3-1.6.3-2.6 1.4-21.8 4.5-45.4-2.4-62.9-15.4-19.2-16-29.6-37.2-30.3-62-.1-11.9 1.7-24.9 7.2-35.6.6-1.3.6-1.3 1.3-2.7 10.2-20.5 29.8-35.2 51.9-40.7 6.8-1.3 13.9-.9 20.8-.6"/><path fill="#393B44" d="M84 113c7.6.3 15.2.7 23 1 4.5 10.1 4.5 10.1 6 14h2.2c3.3.1 6.7.2 10 .2 1.1.1 2.3.1 3.5.1 1.6 0 1.6 0 3.3.1 1.6 0 1.6 0 3.1.1 3.6.6 5.3 2 7.9 4.5 2.2 4.6 2.3 8.8 2.1 13.9v2.1c-.1 4.9-.6 5.5-4.4 8.7-5.5 4.3-5.5 4.3-8.7 4.3-.3 1-.7 2-1 3-3.2 1.2-6.4 2.3-9.6 3.4-.9.4-1.8.7-2.8 1-15.7 5.6-30.8 4.5-46.6-.4-1-.3-2-.6-3-.8-8.5-2.7-15.8-8-22-14.2-.5-2.6-.4-5.2-.4-7.8v-2.1c-.1-5 .8-8.5 4.4-12.1 4.7-4 10.5-3.4 16.4-3.2.9 0 1.8 0 2.8.1 2.3 0 4.5 0 6.8.1.3-.7.6-1.4.8-2.1 1.2-3 2.5-5.8 3.8-8.7.8-1.7 1.6-3.4 2.4-5.2"/><path fill="#3A3C46" d="M89.578 46.902h17.7c4.9.1 9.8.1 14.7.1.5 12.4.5 12.4 1 25 1.3 1 2.7 2 4 3v7c-.6.4-1.2.7-1.9 1.1-2.8 2.5-3.2 4.7-4 8.3-1.4 5.1-2.7 8.4-7.1 11.6-.5.4-1 .9-1.5 1.3-4.9 4.5-9.3 6-15.9 5.9-.8.1-.8.1-1.7.1-5-.1-9.8-1.1-13.9-4.3v-2c-.5-.2-1.1-.4-1.7-.6-5.2-3.1-7.4-6.8-8.6-12.8-.2-1.5-.5-3.1-.7-4.6-.6-.3-1.3-.6-1.9-.9-2.1-1.1-2.1-1.1-3.1-3.1.1-1.5.3-3.1.5-4.6.1-.8.2-1.7.3-2.5.1-.6.1-1.3.2-1.9 1.3-.3 2.7-.7 4-1 0-.9 0-1.9-.1-2.8-.2-7.7-.3-13.8 4.6-20.1 4.3-3.1 10.1-2.2 15.1-2.2"/><path fill="#1064A1" d="M148 25c3.3 0 6.6 0 9.9-.1h8.2c1.9.1 1.9.1 2.9 1.1.1 1.6.1 1.6.1 3.6v4.5c0 .7 0 1.5-.1 2.3V42h5c1.2 2.5 1.1 4.2 1.1 7v14.9C175 66 175 66 174 67c-2.4.1-4.7.1-7.1.1h-9c-2.2 0-2.2 0-4.6-.1H142c0-4 0-8-.1-11.9v-9.8c.1-2.3.1-2.3 1.1-3.3h5z"/><path fill="#374151" d="M146 47h25v15h-25z"/><path fill="#056BB3" d="M144 43c2 1 2 1 2.6 2.3.4 1.9.4 3.4.3 5.3-.1.6-.1 1.2-.2 1.8 0 .8-.1 1.5-.1 2.3-.2 2.4-.4 4.8-.6 7.3h25c-.3-5-.7-9.9-1-15-.7-.3-1.3-.7-2-1v-2c2-.3 4-.7 6-1 1.7 1.7 1.1 3.6 1.1 5.9v6.2c-.1 3.6-.1 7.2-.1 10.9h-32c0-3.6 0-7.2-.1-10.9v-9c.1-2.1.1-2.1 1.1-3.1"/><path fill="#354154" d="M89.578 46.902h17.7c4.9.1 9.8.1 14.7.1v23h-1v-22c-6.1.1-12.2.3-18.3.4-1.7.1-3.5.1-5.3.2-1.6 0-3.3 0-5 .1-1.5 0-3.1.1-4.6.1-3.7 0-3.7 0-6.8 1.2v4h-3v6h-6v16c-.3-.7-.6-1.3-1-2h-5c.4-.7.7-1.3 1-2h3c0-1.4 0-1.4-.1-2.8-.2-7.7-.3-13.8 4.6-20.1 4.3-3.1 10.1-2.2 15.1-2.2"/><path fill="#383F4E" d="M153 30h12v12h-12z"/><path fill="#016EB7" d="M91.895 42.902h18.1c5 .1 10 .1 15 .1v2c-3.8 1.9-8.4 1.1-12.5 1.1h-13.1c-2.3 0-4.5 0-6.8-.1h-16.6c1-2 1-2 2.9-2.5 4.3-.7 8.6-.6 13-.6"/><path fill="#016EB8" d="M149 26h19v16h-2V29c-6.9-.5-6.9-.5-14-1 .3 4.6.7 9.2 1 14 4 .3 7.9.7 12 1v1l-6.9.6c-.6 0-1.3.1-1.9.1-.7.1-1.3.1-1.9.2-.6 0-1.2.1-1.8.1-1.5 0-1.5 0-3.5-1z"/><path fill="#156097" d="M111 123c1 1.3 2 2.6 3 4 7.9.3 15.8.7 24 1v-2c-7.3-.3-14.5-.7-22-1v-1l11.7-.3c1.6-.1 1.6-.1 3.3-.1 9.2-.2 9.2-.2 12 2.7.7.9 1.4 1.8 2 2.7.7.6 1.5 1.2 2.2 1.9 2.5 2.9 2.7 5.6 3 9.3.1.7.2 1.3.3 2 .2 1.6.3 3.2.5 4.8.7-.3 1.3-.7 2-1l-1 3c-1 .3-2 .7-3 1-.1-.5-.1-.9-.2-1.4-.2-2.2-.4-4.3-.7-6.5-.1-.7-.1-1.5-.2-2.2-.1-.8-.2-1.5-.3-2.2 0-.7-.1-1.3-.2-2-.3-2-.3-2-2.4-3.7-.7 1-1.3 2-2 3v-2c-.6-.3-1.3-.6-1.9-.9-2.1-1.1-2.1-1.1-3.1-2.1-1.8-.1-3.7-.2-5.5-.2-1.1-.1-2.2-.1-3.4-.1-2.3-.1-4.7-.2-7.1-.2-1.1-.1-2.2-.1-3.4-.1-1.5-.1-1.5-.1-3.1-.1-2.5-.3-2.5-.3-4.5-2.3-.1-2.1-.1-2.1 0-4"/><path fill="#393E49" d="M84 113c7.6.3 15.2.7 23 1 4 9 4 9 4 11h-3c-.7-2.3-1.3-4.6-2-7-3-.9-5.6-1.1-8.8-1.1-1.1.1-1.1.1-2.4.1H93v3h-9v2h-3c1-3 2-5.9 3-9"/><path fill="#30455C" d="M59 162h13c.3 1 .7 2 1 3h2v3c12.1 2.8 23.6 3.4 36 3v1c-13.4 2.6-26.1 1.1-39-3-.9-.3-.9-.3-1.7-.5-8.8-2.8-8.8-2.8-11.3-6.5"/><path fill="#13619B" d="M63.938 123.625c1 0 1.9.1 2.9.1l7.2.3v1h-20v2c7.6.3 15.1.6 23 1v1h-1.8c-2.6.1-5.2.2-7.9.3-1.3 0-1.3 0-2.7.1-6 .2-10.6.7-15.1 5-.3.4-.6.8-.9 1.3-.5.7-1.1 1.5-1.6 2.3v-5c-1 .3-2 .6-3 1 4.2-9.3 10.3-10.9 19.9-10.4"/><path fill="#1A5C8F" d="M81 21c-1.9 2.4-2.6 3-5.7 3.2-1.1-.1-1.1-.1-2.3-.2v3c.7-.2 1.3-.4 2-.7 6.9-2 12.8-2.7 20-2.3v1c-.7.1-1.3.2-2 .4-3.1.5-6.1 1-9.2 1.5-1 .2-2.1.4-3.2.6-1.5.3-1.5.3-3.1.5-.9.2-1.9.4-2.8.5-2.6.5-5.1 1-7.7 1.5.3-.7.7-1.3 1-2h2v-2h-5c4-4 10.4-5.5 16-5"/><path fill="#13619C" d="M117 98c1.2 2.3.9 2.7 0 5h2c-1.1 2.6-2 4-4.1 5.9-2.6 2.9-2.2 4.3-1.9 8.1-2.5-2.2-3.4-3.7-4-7h-6c1.2-2.4 2.1-2.4 4.5-3.3 4-1.9 7.2-5 9.5-8.7"/><path fill="#036DB6" d="M77 124v4H53c.3-1 .7-2 1-3 3.3-.2 6.5-.3 9.8-.5.9 0 1.9-.1 2.8-.1 1.4-.1 1.4-.1 2.7-.2.9 0 1.7-.1 2.5-.1 1.7-.1 3.5-.1 5.2-.1"/><path fill="#334458" d="M132 75h1c.4 9.4.4 9.4-2 14l1 1c.1 2 0 4 0 6h-3v-3h-2c-.1.6-.2 1.2-.3 1.9-.8 2.5-1.5 2.8-3.7 4.1 2.4-11.1 2.4-11.1 6.9-14.7 2.2-2.6 2-6.1 2.1-9.3"/><path fill="#30465E" d="M81 105h6c.3.7.7 1.3 1 2h14c.3-.7.7-1.3 1-2l6 1c-1.4 2.9-3 3.1-6 4-2.2.3-4.3.3-6.4.2-.9.1-.9.1-1.7.1-4.7 0-9.1-.7-12.8-3.9-.3-.5-.7-.9-1.1-1.4"/><path fill="#026EB8" d="M47 132c1.2 2.7.7 4.2 0 7-.1 1.4-.2 2.9-.3 4.3-.1.8-.1 1.6-.1 2.5-.1.8-.1 1.6-.2 2.4 0 .9 0 1.7-.1 2.6-.1 2.1-.2 4.1-.3 6.2-1-.3-2-.7-3-1 .3-7.3.7-14.5 1-22 1-.7 2-1.3 3-2"/><path fill="#353F50" d="M160 144c1.3 3.6.6 5.6-1 9h-3v3c-4.4 3.1-4.4 3.1-7.3 2.7-.6-.2-1.1-.5-1.7-.7 3.8-4 3.8-4 6-4 .2-.5.5-1.1.7-1.6 1.7-3.2 4-5.7 6.3-8.4"/><path fill="#2E4966" d="M25 74c1 3.5.9 6.2.6 9.8-.1.5-.1 1-.2 1.5-.1 1.2-.3 2.5-.4 3.7h-2c.3 8.2.7 16.5 1 25-3.1-4.7-2.3-9.5-2.3-14.9 0-1.1 0-2.2-.1-3.3 0-7.7 1.2-14.5 3.4-21.8"/><path fill="#2E4963" d="M90 114h17c4 8.8 4 8.8 4 11h-3c-.7-2.3-1.3-4.6-2-7-7.4-1-7.4-1-15-2-.3-.7-.7-1.3-1-2"/><path fill="#14629B" d="m60 72 5 1c1 2.5 1.1 4.5 1.1 7.2 0 .7-.1 1.4-.1 2.2V84c1.3.3 2.6.7 4 1 .3 1.7.7 3.3 1 5-.6-1-.6-1-1.3-1.9-1.4-2.2-1.4-2.2-3.3-2.5-1.4-.6-1.4-.6-2.6-2.8-.8-2.8-1-5-.8-7.8h-2c.3 3.3.7 6.6 1 10-.7-.3-1.3-.7-2-1z"/><path fill="#026DB7" d="M61 75h2c.7 3.3 1.3 6.6 2 10 1.3.3 2.6.7 4 1 .3 1.7.7 3.3 1 5h-3c-.1-.5-.2-.9-.2-1.4-.7-1.8-.7-1.8-2.8-2.6-2-1-2-1-2.6-2.3-.5-2-.5-3.8-.5-5.9 0-.7.1-1.4.1-2.2z"/><path fill="#2E4760" d="M139 165c0 2 0 2-2.2 3.9-2.3 1.8-4 2.5-6.8 3.1-.3.7-.7 1.3-1 2h-9c3.2-2.2 6.6-3.9 10.1-5.6.9-.5.9-.5 1.9-1l1.8-.9c.6-.3 1.2-.6 1.7-.9 1.5-.6 1.5-.6 3.5-.6"/><path fill="#2F4860" d="M71 54h1v22c-.3-.7-.7-1.3-1-2h-5c.3-.7.7-1.3 1-2h3v-2.9c0-1.3-.1-2.6-.1-3.9v-1.9c0-3.2.1-6.1 1.1-9.3"/><path fill="#2F4660" d="M18 80c1 3.2 1 5.7.7 9-.1.9-.2 1.9-.3 2.8-.2 1.5-.2 1.5-.3 3-.1.9-.2 1.9-.3 2.9-.3 2.5-.5 4.9-.8 7.3h-1c-.3-6.9-.7-13.9-1-21h2c.3-1.3.7-2.6 1-4"/><path fill="#30475F" d="M47 42c.3 1.3.7 2.6 1 4-.5.1-.9.2-1.4.3-2 .9-2.5 1.8-3.6 3.7h-2c-.3 1.3-.7 2.6-1 4h-3v3c-1-.3-2-.7-3-1 1.4-1.8 2.8-3.5 4.2-5.3l1.2-1.5c2.3-2.9 4.5-5.1 7.6-7.2"/><path fill="#12639D" d="M129 71h2c1.3 2.5 1.1 4.3 1.1 7.1 0 .9-.1 1.8-.1 2.8V83h-1c-.3-2.6-.7-5.3-1-8-1 3-2 5.9-3 9-.7-.3-1.3-.7-2-1l1-1c.2-1.6.2-1.6.1-3.4v-1.9c0-1.8 0-1.8-1.1-3.7h4z"/><path fill="#32465C" d="M60 35v4c-2.8 1.1-2.8 1.1-5 0-.3.7-.7 1.3-1 2-2 .3-4 .7-6 1 2.6-3.7 7.1-9.5 12-7"/><path fill="#016DB6" d="M172 98c1 .3 2 .7 3 1-.7 4.3-1.3 8.6-2 13h-2c-.3 1-.7 2-1 3 .1-2.6.3-5.3.4-7.9.1-.8.1-1.5.2-2.3 0-.7 0-1.5.1-2.2 0-.7.1-1.3.1-2 .2-1.6.2-1.6 1.2-2.6"/><path fill="#175F96" d="M60 28v2h-3c1 1.3 2 2.6 3 4-1.6.7-3.3 1.3-5 2v-2c-2.3.7-4.6 1.3-7 2 7.6-8 7.6-8 12-8"/><path fill="#166097" d="M110 105c.7.3 1.3.7 2 1v2l2 2c-.9 4.8-.9 4.8-2 7-1-2.3-2-4.6-3-7h-6c1.4-2.8 3.2-2.9 6-4z"/><path fill="#1B5C8E" d="M171 96c1.3.3 2.6.7 4 1-.3.7-.7 1.3-1 2h-2c-.3 4-.7 7.9-1 12h-2c-.2-5.5-.1-9.9 2-15"/><path fill="#2E4962" d="M141 133h2c1.9 4.8 2.3 8.8 2.1 13.9v2.1c0 1.6-.1 3.3-.1 5h-1c-.3-5.3-.7-10.6-1-16h-2z"/><path fill="#11629E" d="m70 168 9 2v1h-5c.3 1 .7 2 1 3-2.6-.3-5.3-.7-8-1-.3-.7-.7-1.3-1-2l5 1c-.3-1.3-.7-2.6-1-4"/><path fill="#165F96" d="M27 126c2 1 2 1 2.6 2.8.2.8.4 1.5.5 2.3.2.7.4 1.4.5 2.2.2.6.3 1.1.4 1.7-.5.1-.9.2-1.4.4-1.8.5-1.8.5-2.6 2.6-.7-1-1.3-2-2-3 .3-1 .7-2 1-3 .7.3 1.3.7 2 1-.3-2.3-.7-4.6-1-7"/><path fill="#1163A0" d="M75 99c2 1.7 4 3.3 6 5-1.3.3-2.6.7-4 1-.3 1-.7 2-1 3-3-2.8-3-2.8-3-5l2-2z"/><path fill="#2F465F" d="M155 150c0 3.7-.8 5.1-3 8-2.7.8-2.7.8-5 1 1.3-1.7 2.6-3.3 4-5h2c.7-1.3 1.3-2.6 2-4"/><path fill="#12629A" d="M164 127c1 2 1 2 .5 4.4-.5 2.6-.3 4.1.5 6.6-2.4.1-3.8.1-6-1 1.7-3.3 3.3-6.6 5-10"/><path fill="#0F65A2" d="M121 89h1v5h2c.3-1 .7-2 1-3 .3.7.7 1.3 1 2-.7 1.3-1.3 2.6-2 4h-3l-2 1c.6-3 1.2-6 2-9"/><path fill="#036CB5" d="M55 34c-.3 1.8-.7 2.8-2.2 3.9-1.2.7-2.5 1.4-3.8 2.1-.7-.3-1.3-.7-2-1 .4-1.9.8-2.9 2.3-4.2 2-1 3.5-1 5.7-.8"/><path fill="#334254" d="M56 167c1.6.6 3.3 1.2 4.9 1.9l2.8 1C66 171 66 171 67 173c-2.3.3-4.6.7-7 1 .3-1 .7-2 1-3h-2v-2h-3z"/><path fill="#2F475F" d="M59 162h7c.3 1 .7 2 1 3l2 2c-4.9-.4-6.8-1.2-10-5"/><path fill="#314459" d="M118 105c.3 1 .7 2 1 3-1 .3-2 .7-3 1v3c-1.3 1-2.6 2-4 3 .4-4.9 2.5-6.9 6-10"/><path fill="#344356" d="M120 81h3v2c.7.3 1.3.7 2 1l-2 1c-.7 1.9-.7 1.9-1.1 4.1-.2.7-.4 1.4-.5 2.2-.2.6-.3 1.1-.4 1.7h-1z"/><path fill="#2D4760" d="M168 112c1.2 2.7.8 4.4.1 7.2-.2.7-.4 1.4-.6 2.2-.2.5-.3 1-.5 1.6h-1c-.3-2.6-.7-5.3-1-8 1-.3 2-.7 3-1z"/><path fill="#046DB3" d="M114 104c1 .3 2 .7 3 1v2c-1.7.7-3.3 1.3-5 2l-2-2c1.3-1 2.6-2 4-3"/><path fill="#2C4A67" d="M170 125h1v6h-2c-.7 1.3-1.3 2.6-2 4 0-2.9.3-4.1 1.5-6.7.3-.6.6-1.2.8-1.9.4-.7.4-.7.7-1.4"/><path fill="#046BB3" d="M172 115v6c-1.3.3-2.6.7-4 1 .3-2 .7-4 1-6 2-1 2-1 3-1"/><path fill="#304860" d="M69 31v2l-9 1c4.4-4.4 4.4-4.4 9-3"/><path fill="#0E66A4" d="M144 154c.3.7.7 1.3 1 2h3c-.7 1.3-1.3 2.6-2 4-.3-1-.7-2-1-3-1.3.3-2.6.7-4 1 1-1.3 2-2.6 3-4"/><path fill="#2B4B6B" d="M84 113c1 3.8.9 5.3 0 9h-3c1-3 2-5.9 3-9"/><path fill="#0E66A4" d="M57 33v3h-2v-2c-2.3.7-4.6 1.3-7 2 2.5-3.7 4.8-4.9 9-3"/></svg>